<?xml version="1.0" standalone="no"?>
<!DOCTYPE svg PUBLIC "-//W3C//DTD SVG 20010904//EN"
 "http://www.w3.org/TR/2001/REC-SVG-20010904/DTD/svg10.dtd">
<svg version="1.0" xmlns="http://www.w3.org/2000/svg"
 width="400.000000pt" height="400.000000pt" viewBox="0 0 400.000000 400.000000"
 preserveAspectRatio="xMidYMid meet">

<g transform="translate(0.000000,400.000000) scale(0.100000,-0.100000)"
fill="#000000" stroke="none">
<path d="M1530 3124 c-92 -162 -120 -211 -182 -323 -39 -69 -86 -152 -98 -171
-5 -8 -21 -37 -36 -65 -14 -27 -32 -57 -38 -65 -7 -8 -20 -31 -30 -50 -9 -19
-21 -42 -26 -50 -12 -18 -57 -97 -101 -176 -69 -125 -83 -149 -109 -193 -14
-26 -29 -53 -33 -61 -5 -8 -13 -24 -20 -35 -7 -11 -30 -52 -52 -90 -22 -39
-45 -79 -52 -90 -6 -11 -19 -36 -29 -55 -10 -19 -33 -59 -51 -88 -18 -29 -33
-56 -33 -61 0 -5 -7 -14 -15 -21 -8 -7 -15 -21 -15 -31 0 -11 -4 -19 -9 -19
-5 0 -11 -8 -14 -17 -3 -10 -19 -40 -35 -68 -25 -43 -115 -200 -172 -300 -9
-16 -32 -57 -50 -90 -18 -33 -40 -71 -49 -85 -9 -14 -26 -43 -36 -65 -11 -22
-22 -42 -25 -45 -3 -3 -10 -14 -16 -25 -15 -28 -74 -133 -95 -172 -10 -17 -15
-34 -12 -37 4 -3 135 -6 292 -6 l286 0 37 25 c20 14 39 25 41 25 2 0 75 43
162 95 87 52 160 95 162 95 2 0 39 23 82 50 43 28 83 50 89 50 7 0 12 5 12 10
0 6 4 10 10 10 5 0 33 15 62 33 29 19 60 37 68 40 8 4 33 18 55 32 22 14 49
30 60 36 11 5 29 15 40 22 11 7 75 45 143 85 67 40 122 79 122 86 0 7 -33 29
-72 50 -40 20 -98 50 -128 68 -54 31 -54 31 -85 13 -16 -10 -45 -26 -63 -37
-18 -10 -93 -53 -165 -95 -191 -111 -238 -136 -243 -130 -5 5 22 59 97 192 22
39 42 78 46 88 3 9 9 17 14 17 5 0 9 8 9 19 0 10 7 24 15 31 8 7 15 17 15 22
0 6 8 22 19 36 10 15 33 54 50 87 18 33 36 67 41 75 6 8 26 44 46 80 20 36 45
81 57 100 11 19 38 69 59 110 22 41 44 80 48 85 4 6 17 26 27 45 11 19 33 60
50 90 17 30 45 80 62 110 18 30 35 63 38 73 3 9 9 17 14 17 5 0 9 9 9 20 0 11
4 20 9 20 5 0 13 10 16 22 4 11 20 42 35 68 15 25 40 68 55 96 75 134 100 174
110 174 6 0 19 -15 28 -32 22 -44 68 -124 101 -176 14 -23 26 -44 26 -47 0 -3
16 -31 35 -61 19 -30 35 -58 35 -63 0 -5 7 -14 15 -21 8 -7 15 -21 15 -31 0
-11 4 -19 9 -19 5 0 11 -8 14 -17 6 -18 48 -94 57 -103 3 -3 10 -14 16 -25 38
-69 66 -118 88 -154 14 -22 26 -43 26 -46 0 -3 12 -24 26 -46 23 -37 37 -61
97 -169 10 -19 23 -39 27 -45 4 -5 22 -37 40 -70 80 -144 104 -185 113 -185 4
0 7 -9 7 -19 0 -11 5 -23 11 -26 5 -4 14 -17 19 -28 6 -12 21 -40 34 -62 43
-69 55 -95 46 -100 -4 -3 -183 84 -396 192 -214 108 -406 204 -426 215 l-37
18 -48 -26 c-26 -15 -59 -34 -73 -43 -45 -29 -64 -40 -115 -66 -49 -25 -102
-63 -94 -68 2 -1 13 -7 24 -13 11 -6 43 -23 70 -39 28 -15 79 -43 115 -63 36
-19 90 -49 120 -65 30 -17 73 -40 95 -52 22 -12 76 -41 120 -65 44 -24 109
-60 145 -80 36 -21 108 -60 160 -87 52 -28 113 -60 135 -73 111 -63 150 -85
175 -95 8 -3 24 -11 35 -18 29 -17 228 -128 310 -172 39 -21 93 -51 122 -67
l52 -28 275 0 c160 0 277 4 281 9 3 6 -4 27 -16 48 -12 21 -33 58 -47 83 -14
25 -34 59 -44 75 -10 17 -22 39 -28 50 -5 11 -21 38 -34 60 -14 22 -33 56 -42
75 -10 19 -25 46 -34 60 -10 14 -29 46 -43 72 -14 25 -60 105 -101 177 -42 73
-76 134 -76 136 0 3 -16 29 -35 59 -19 30 -35 58 -35 61 0 3 -11 24 -26 46
-25 41 -33 54 -94 164 -18 33 -53 93 -77 133 -24 41 -43 76 -43 78 0 3 -16 30
-35 60 -19 30 -35 56 -35 58 0 3 -27 50 -60 106 -33 56 -60 103 -60 106 0 2
-16 28 -35 58 -19 30 -35 58 -35 61 0 3 -12 24 -26 46 -23 37 -37 61 -97 169
-10 19 -23 40 -27 45 -4 6 -22 37 -40 70 -18 33 -44 80 -58 105 -14 25 -33 57
-43 72 -11 14 -19 28 -19 31 0 5 -27 53 -118 211 -29 49 -52 92 -52 96 0 4 -8
14 -18 23 -17 15 -59 17 -398 17 l-379 0 -95 -166z"/>
<path d="M3620 2599 c-102 -4 -209 -12 -239 -18 -29 -6 -105 -11 -167 -11 -65
0 -114 -4 -114 -9 0 -6 17 -23 37 -38 34 -25 87 -70 117 -99 6 -6 19 -15 30
-21 16 -9 10 -15 -45 -49 -35 -22 -77 -46 -93 -54 -16 -8 -31 -20 -33 -28 -5
-12 88 -184 114 -210 7 -7 13 -18 13 -23 0 -5 25 7 55 26 30 19 56 35 59 35 3
0 33 18 66 39 34 22 67 38 74 35 7 -3 43 -50 82 -104 38 -55 72 -100 76 -100
3 0 14 21 23 48 10 26 21 56 25 67 4 11 13 40 20 65 6 25 18 60 26 78 8 18 14
41 14 52 0 10 5 22 10 25 6 3 10 19 10 35 0 16 5 32 10 35 6 3 10 14 10 23 0
9 7 30 15 46 8 15 15 39 15 52 0 12 5 26 10 29 6 3 10 24 10 46 0 34 -3 39
-22 37 -13 -1 -106 -5 -208 -9z"/>
</g>
</svg>
